<svg width="628" height="180" viewBox="0 0 628 180" fill="none" xmlns="http://www.w3.org/2000/svg" preserveAspectRatio="none">
<path d="M425 2C425 2 343.231 15.2216 290.5 21C229.196 27.7179 133 32.5 133 32.5C133 32.5 266.218 29.6421 351.5 32.5C459.536 36.1204 627.5 53.5 627.5 53.5C627.5 53.5 411.796 49.1609 274.5 62C186.572 70.2225 50.5 93 50.5 93C50.5 93 176.429 84.6554 257 88.5C305.171 90.7986 380 99.5 380 99.5C380 99.5 291.773 88.4745 235 88.9794C173.993 89.522 79.5 104 79.5 104C79.5 104 122.357 103.111 149.5 106.5C171.425 109.237 205 117.5 205 117.5C205 117.5 168.401 118.833 145 120.5C121.724 122.158 85.5 126 85.5 126L141 145.5L15.5 149.5L95.5 165C95.5 165 66.4025 165.388 48 168C29.3795 170.643 1 178.5 1 178.5" stroke="#E3DED8" stroke-width="3"/>
</svg>

