<svg width="191" height="102" viewBox="0 0 191 102" fill="none" xmlns="http://www.w3.org/2000/svg">
<path d="M34.1914 99.5324C34.1914 99.5324 -2.33575 89.7063 1.9584 78.6887C6.90042 66.009 34.1914 99.5324 34.1914 99.5324Z" stroke="#E3DED8" stroke-width="2.60119"/>
<path d="M170.344 66.1921C170.344 66.1921 170.595 9.72128 184.957 15.9082C198.923 21.9252 170.344 66.1921 170.344 66.1921Z" stroke="#E3DED8" stroke-width="2.60119"/>
<path d="M120.902 59.9001C120.902 59.9001 98.5202 6.80143 112.737 1.8807C129.499 -3.92107 120.902 59.9001 120.902 59.9001Z" stroke="#E3DED8" stroke-width="2.60119"/>
<path d="M45.3274 23.6987C33.657 36.9242 74.1227 64.7429 74.1227 64.7429L75.1972 65.6029C75.1972 65.6029 54.9979 12.7396 45.3274 23.6987Z" stroke="#E3DED8" stroke-width="2.60119"/>
</svg>
